<?xml version="1.0" encoding="utf-8"?>
<!-- Generator: Adobe Illustrator 23.0.3, SVG Export Plug-In . SVG Version: 6.00 Build 0)  -->
<svg version="1.1" id="Layer_1" xmlns="http://www.w3.org/2000/svg" xmlns:xlink="http://www.w3.org/1999/xlink" x="0px" y="0px"
	 viewBox="0 0 211.9 252.6" style="enable-background:new 0 0 211.9 252.6;" xml:space="preserve">
<style type="text/css">
	.st0{fill:#13D670;}
	.st1{fill:#3F3F3F;}
	.st2{fill:#16D3A1;}
	.st3{fill:#3A3A3A;}
	.st4{fill:#595959;}
	.st5{fill:#565656;}
	.st6{fill:#262626;}
	.st7{fill:#353535;}
</style>
<title>Asset 7@41x</title>
<g>
	<g id="Layer_2-2">
		<g>
			<g>
				<circle class="st0" cx="61.7" cy="104.9" r="17.1"/>
				<circle class="st0" cx="61.7" cy="104.9" r="17.1"/>
				<polygon class="st1" points="105.9,56.7 0,27.8 105.9,0 208,27.8 				"/>
				<path class="st2" d="M78.8,104.9c0,7.2-4.5,13.6-11.2,16L46.8,96.6c4.6-8.2,15-11.2,23.2-6.7C75.4,93,78.8,98.7,78.8,104.9z"/>
				<path class="st3" d="M211.9,42c-1.5,30.2-25.3,30.3-26,30.3h0l-10.4,12.1c-11.3-14-31.8-16.2-45.8-4.9s-16.2,31.8-4.9,45.8
					c2.5,3.1,5.6,5.7,9.1,7.8l-10.4,12.1l-17.6,20.5h0l-17.6-20.5L78,133.1c15.6-9,20.9-28.9,11.9-44.5S61,67.7,45.5,76.7
					c-3.5,2-6.5,4.6-9.1,7.7L26,72.3h0c-0.8,0-24.5-0.1-26-30.3c0,0,5.2,6.8,17.7,7.2c12.4,0.4,67.6-13.6,88.2,1.7h0
					c20.7-15.3,75.8-1.2,88.2-1.7C206.6,48.8,211.9,42,211.9,42z"/>
				<path class="st4" d="M162.9,40.4v5c-46.1-6.1-56.9,5.4-56.9,5.4S95.1,39.4,49,45.5v-5c0,0,19.8-19.4,56.9-18.9
					C143.1,21,162.9,40.4,162.9,40.4z"/>
				<circle class="st3" cx="61.7" cy="104.9" r="17.1"/>
				<path class="st5" d="M61.7,56.6c-26.7,0-48.3,21.6-48.3,48.3s21.6,48.3,48.3,48.3c26.7,0,48.3-21.6,48.3-48.3c0,0,0,0,0,0
					C110,78.2,88.4,56.6,61.7,56.6z M61.7,137.4c-18,0-32.6-14.6-32.6-32.6s14.6-32.6,32.6-32.6s32.6,14.6,32.6,32.6
					C94.3,122.9,79.7,137.4,61.7,137.4C61.7,137.4,61.7,137.4,61.7,137.4L61.7,137.4z"/>
				<circle class="st3" cx="150.1" cy="104.9" r="17.1"/>
				<path class="st5" d="M101.8,104.9c0,26.7,21.6,48.3,48.3,48.3s48.3-21.6,48.3-48.3s-21.6-48.3-48.3-48.3c0,0,0,0,0,0
					C123.4,56.6,101.8,78.2,101.8,104.9z M117.6,104.9c0-18,14.6-32.6,32.6-32.6s32.6,14.6,32.6,32.6s-14.6,32.6-32.6,32.6h0
					C132.2,137.4,117.6,122.9,117.6,104.9C117.6,104.9,117.6,104.9,117.6,104.9z"/>
				<rect x="180.7" y="29.8" class="st6" width="4.1" height="12.9"/>
			</g>
			<g>
				<path class="st7" d="M35.7,194.2c0.1,0.1,0.1,0.2,0.1,0.3v6.3c0,0.2-0.1,0.3-0.3,0.4c0,0-0.1,0-0.1,0h-7.2v23.3
					c0,0.2-0.2,0.3-0.4,0.4h-6.6c-0.1,0-0.2,0-0.3-0.1c-0.1-0.1-0.1-0.2-0.1-0.2v-23.2h-7.2c-0.2,0-0.3-0.2-0.4-0.4v-6.3
					c0-0.1,0-0.2,0.1-0.3c0.1-0.1,0.2-0.1,0.2-0.1h21.7C35.5,194.1,35.6,194.1,35.7,194.2z"/>
				<path class="st7" d="M63.3,194.2c0.1,0.1,0.1,0.2,0.1,0.3v29.9c0,0.1,0,0.2-0.1,0.3c-0.1,0.1-0.2,0.1-0.2,0.1h-7.2
					c-0.2,0-0.3-0.1-0.4-0.3c0,0,0-0.1,0-0.1v-11.6h-8.4v11.6c0,0.1,0,0.2-0.1,0.3c-0.1,0.1-0.2,0.1-0.2,0.1h-7.2
					c-0.1,0-0.2,0-0.2-0.1c-0.1-0.1-0.1-0.2-0.1-0.3v-29.9c0-0.1,0-0.2,0.1-0.3c0.1-0.1,0.1-0.1,0.2-0.1h7.2c0.1,0,0.2,0,0.2,0.1
					c0.1,0.1,0.1,0.2,0.1,0.3V206h8.4v-11.6c0-0.1,0-0.2,0.1-0.2c0.1-0.1,0.2-0.1,0.3-0.1H63C63.1,194.1,63.2,194.1,63.3,194.2z"/>
				<path class="st7" d="M76,205.8l9.2,0c0.1,0,0.2,0,0.3,0.1c0.1,0.1,0.1,0.1,0.1,0.2v6.4c0,0.1-0.1,0.2-0.1,0.3
					c-0.1,0.1-0.1,0.1-0.2,0.1l-9.3,0v4.6h9.8c0.3,0,0.4,0.1,0.4,0.4v6.4c0,0.2-0.1,0.4-0.4,0.4H69c-0.1,0-0.2,0-0.2-0.1
					c-0.1-0.1-0.1-0.2-0.1-0.3v-29.9c0-0.2,0.2-0.3,0.4-0.4h16.9c0.1,0,0.2,0,0.3,0.1c0.1,0.1,0.1,0.1,0.1,0.2v6.4
					c0,0.1,0,0.2-0.1,0.2c-0.1,0.1-0.2,0.1-0.3,0.1H76V205.8z"/>
				<path class="st7" d="M137.4,209.5c0,5.4-2.9,10.5-7.6,13.2c-2.3,1.4-5,2.1-7.7,2.1c-2.7,0-5.4-0.7-7.7-2.1
					c-2.3-1.4-4.2-3.3-5.6-5.6c-1.4-2.3-2.1-4.9-2.1-7.6c0-2.7,0.7-5.3,2.1-7.7c1.3-2.3,3.3-4.3,5.6-5.6c4.7-2.7,10.6-2.7,15.3,0
					c2.3,1.3,4.3,3.3,5.6,5.6C136.7,204.1,137.4,206.8,137.4,209.5z M130.2,209.3c0-1.4-0.4-2.8-1.1-4c-0.7-1.2-1.7-2.3-2.9-3
					c-2.5-1.5-5.6-1.5-8.1,0c-1.2,0.7-2.2,1.8-2.9,3c-0.7,1.3-1.1,2.7-1.1,4.2c0,1.5,0.4,2.9,1.1,4.2c0.7,1.2,1.7,2.3,3,3
					c1.2,0.7,2.6,1.1,4.1,1.1c1.4,0,2.8-0.4,4.1-1.1c1.2-0.7,2.2-1.8,2.9-3C129.8,212.3,130.2,210.8,130.2,209.3L130.2,209.3z"/>
				<path class="st7" d="M177.1,194.4c0.1,0.1,0.1,0.2,0,0.3l-12.7,30.1c-0.1,0.2-0.2,0.3-0.3,0.3c-0.1,0-0.3-0.1-0.3-0.2l-7.4-15.8
					l-7.4,15.8c0,0.1-0.2,0.2-0.3,0.2c-0.1,0-0.2-0.1-0.3-0.3l-11.9-30.1l0-0.2c0-0.1,0-0.2,0.1-0.3c0.1-0.1,0.2-0.1,0.2-0.1h7
					c0.1,0,0.2,0.1,0.3,0.3l5.3,14.3l7.1-14.4c0.1-0.1,0.2-0.2,0.3-0.2c0.1,0,0.3,0.1,0.3,0.2l6.3,14.4l6-14.2c0,0,0-0.1,0.1-0.1
					c0.1-0.1,0.2-0.1,0.3-0.1h7C176.9,194.2,177,194.3,177.1,194.4L177.1,194.4z"/>
				<path class="st7" d="M198.3,217.7c0.1,0.1,0.1,0.2,0.1,0.3v6.4c0,0.1,0,0.2-0.1,0.3c-0.1,0.1-0.2,0.1-0.2,0.1h-18.2
					c-0.2,0-0.3-0.2-0.4-0.4l0-29.9c0-0.2,0.2-0.3,0.4-0.4h6.7c0.2,0,0.3,0.2,0.4,0.4l0,23.1h11.1
					C198.2,217.6,198.3,217.6,198.3,217.7z"/>
			</g>
			<circle class="st7" cx="122.1" cy="209.5" r="4.9"/>
		</g>
		<g>
			<path d="M19.8,242.9h-3.9l-1,2.8h-1.3l3.6-9.9h1.2l3.6,9.9h-1.3L19.8,242.9z M16.2,241.9h3.2l-1.6-4.5h0L16.2,241.9z"/>
			<path d="M42.8,240.8c0-3.1,1.7-5.1,4.4-5.1c2.1,0,3.8,1.3,4.1,3.3h-1.2c-0.3-1.3-1.4-2.1-2.9-2.1c-1.9,0-3.2,1.6-3.2,4
				c0,2.4,1.2,4,3.2,4c1.4,0,2.5-0.7,2.8-1.9h1.2c-0.5,1.9-1.9,3-4.1,3C44.5,245.9,42.8,243.9,42.8,240.8z"/>
			<path d="M78.5,242.9h-3.9l-1,2.8h-1.3l3.6-9.9h1.2l3.6,9.9h-1.3L78.5,242.9z M75,241.9h3.2l-1.6-4.5h0L75,241.9z"/>
			<path d="M105.6,235.9c2.9,0,4.7,1.8,4.7,4.9c0,3.1-1.7,4.9-4.7,4.9h-3.4v-9.9H105.6z M103.5,244.7h2.1c2.2,0,3.5-1.4,3.5-3.8
				c0-2.5-1.2-3.8-3.5-3.8h-2.1V244.7z"/>
			<path d="M138.2,245.8h-6.1v-9.9h6.1v1.1h-4.9v3.2h4.6v1.1h-4.6v3.4h4.9V245.8z"/>
			<path d="M169.9,245.8h-1.1v-7.6h0l-3.1,7.5h-1l-3.1-7.5h0v7.6h-1.1v-9.9h1.4l3.4,8.2h0.1l3.4-8.2h1.4V245.8z"/>
			<path d="M194.8,245.8v-4.2l-3.5-5.6h1.4l2.7,4.4h0l2.7-4.4h1.4l-3.5,5.6v4.2H194.8z"/>
		</g>
	</g>
</g>
</svg>
